<?xml version="1.0" standalone="no"?>
<!DOCTYPE svg PUBLIC "-//W3C//DTD SVG 20010904//EN"
 "http://www.w3.org/TR/2001/REC-SVG-20010904/DTD/svg10.dtd">
<svg version="1.0" xmlns="http://www.w3.org/2000/svg"
 width="2048.000000pt" height="2048.000000pt" viewBox="0 0 2048.000000 2048.000000"
 preserveAspectRatio="xMidYMid meet">
<metadata>
Created by potrace 1.16, written by Peter Selinger 2001-2019
</metadata>
<g transform="translate(0.000000,2048.000000) scale(0.100000,-0.100000)"
fill="#000000" stroke="none">
<path d="M10120 12880 c-378 -48 -756 -282 -1057 -655 -71 -88 -218 -305 -252
-373 l-22 -43 -42 38 c-23 22 -71 59 -107 83 -36 24 -99 78 -140 120 -41 42
-100 95 -130 117 -121 89 -293 164 -462 200 -101 22 -404 24 -543 5 -384 -55
-839 -178 -1585 -431 -228 -78 -422 -141 -431 -141 -9 0 -24 11 -33 25 -34 52
-224 240 -306 303 -47 37 -121 99 -164 140 -253 235 -508 375 -796 438 -101
22 -346 25 -450 5 -328 -62 -573 -240 -695 -504 -19 -41 -42 -101 -50 -132
-23 -92 -36 -251 -26 -337 l9 -77 -87 -88 c-52 -53 -105 -121 -135 -171 -126
-213 -238 -585 -306 -1017 -20 -131 -11 -118 -114 -159 -342 -135 -647 -410
-805 -724 -85 -170 -136 -372 -147 -581 -10 -193 33 -371 123 -509 50 -77 176
-199 248 -242 33 -19 101 -75 150 -125 114 -115 136 -133 215 -172 329 -165
761 -147 1063 43 51 32 102 67 113 78 12 12 43 41 70 66 67 64 153 174 209
269 35 59 51 78 58 69 6 -9 7 -8 3 5 -3 10 11 53 34 102 22 47 40 87 40 91 0
3 6 20 14 37 26 57 67 180 87 262 41 162 51 200 53 203 2 1 77 13 167 27 152
23 232 40 352 78 l47 15 0 -57 c0 -139 42 -355 93 -481 74 -184 200 -343 354
-446 48 -33 103 -77 122 -99 50 -55 109 -110 158 -148 23 -17 43 -37 43 -43 0
-6 8 -18 18 -25 15 -13 16 -12 3 4 -19 24 -6 21 53 -12 60 -34 178 -75 256
-90 30 -5 129 -8 220 -7 133 2 177 7 230 24 79 25 176 65 225 92 l36 20 22
-21 c29 -28 147 -83 217 -101 31 -9 112 -16 185 -17 112 -2 144 2 229 24 104
27 263 101 351 164 68 48 214 173 247 211 l28 32 43 -36 c42 -35 152 -96 172
-96 6 0 21 -19 34 -42 35 -61 97 -124 163 -165 32 -20 58 -38 58 -40 0 -2 -6
-1 -12 3 -7 4 -10 3 -5 -1 4 -5 17 -9 30 -11 12 -1 47 -10 77 -19 40 -13 100
-18 216 -21 140 -3 170 -1 234 17 41 12 79 22 85 24 33 7 177 76 187 89 4 6
18 5 35 -2 25 -11 26 -11 10 2 -11 9 -14 17 -8 20 6 4 32 -10 59 -31 26 -21
67 -47 90 -57 31 -14 39 -22 30 -28 -9 -6 -5 -7 10 -3 12 4 36 0 54 -9 42 -22
262 -32 343 -17 125 23 253 115 311 222 l26 47 82 -82 c59 -59 102 -92 161
-122 115 -60 190 -74 365 -70 132 3 154 6 240 35 51 18 116 43 142 56 27 13
54 23 61 21 6 -1 9 -1 5 1 -4 3 23 25 60 50 37 25 81 57 98 69 17 13 34 21 38
16 4 -4 6 -1 4 7 -6 26 19 22 58 -10 21 -17 53 -38 69 -46 17 -9 32 -19 35
-23 8 -13 182 -90 227 -102 25 -6 40 -15 36 -21 -3 -5 -1 -7 5 -3 6 3 37 -1
69 -9 196 -52 493 -62 670 -24 52 11 103 22 112 24 9 2 30 10 46 19 17 9 36
16 44 16 8 0 34 12 58 26 25 14 51 23 59 20 8 -3 13 -2 10 3 -3 4 7 14 22 22
46 24 164 103 196 132 32 28 47 30 54 7 3 -8 0 -10 -8 -5 -9 5 -11 4 -6 -4 4
-6 11 -9 15 -7 4 3 31 -19 60 -49 28 -30 69 -66 90 -80 22 -13 42 -28 45 -34
9 -13 171 -91 191 -91 15 0 16 -2 4 -17 -13 -16 -12 -17 3 -4 15 11 30 10 100
-10 74 -21 104 -24 273 -24 215 0 294 15 434 81 46 21 82 32 95 29 14 -4 17
-3 8 3 -9 6 5 20 52 51 173 112 349 331 463 579 l35 74 26 -25 c34 -32 201
-120 267 -141 51 -16 277 -28 268 -13 -2 4 3 7 11 7 12 0 14 -8 11 -32 -4 -25
-3 -27 3 -9 7 22 10 19 47 -35 47 -68 142 -149 228 -195 34 -18 64 -36 66 -42
11 -28 111 -134 166 -175 35 -27 62 -51 59 -54 -2 -3 2 -11 11 -18 13 -11 14
-10 9 4 -8 21 -7 21 60 -9 107 -47 308 -60 448 -29 77 17 244 80 254 95 11 18
37 8 87 -35 29 -24 63 -49 76 -56 19 -10 21 -14 10 -22 -11 -8 -10 -9 4 -4 9
3 27 1 40 -3 23 -10 59 -23 67 -26 3 -1 35 -5 72 -9 124 -15 285 23 461 110
l109 53 66 -34 c132 -66 182 -77 348 -81 123 -3 165 0 230 16 95 23 169 51
241 91 29 16 58 27 63 24 6 -4 9 -2 8 3 -4 15 71 64 85 56 7 -4 9 -4 5 1 -4 4
25 35 64 69 135 116 235 227 387 431 33 45 82 121 128 203 14 23 28 40 31 38
4 -2 8 6 8 17 1 12 9 47 18 77 61 211 -64 452 -271 521 -51 17 -63 25 -72 50
-6 16 -19 43 -31 59 -17 24 -18 33 -9 54 7 14 16 23 20 20 5 -3 6 2 3 10 -3 9
-1 16 5 16 6 0 11 7 11 15 0 9 10 35 21 58 30 58 97 239 115 312 65 259 -15
444 -239 554 -72 35 -85 46 -106 86 -112 213 -518 323 -813 220 -73 -26 -116
-53 -181 -114 l-37 -35 -43 40 c-103 99 -256 176 -394 198 -17 3 -29 16 -14
16 7 0 10 4 7 9 -3 5 4 31 16 57 22 49 24 55 27 75 0 5 6 7 13 3 6 -4 8 -3 5
3 -4 6 9 39 28 73 99 176 99 325 -2 473 -56 83 -115 135 -213 187 -57 30 -81
49 -100 81 -66 109 -222 209 -399 257 -83 21 -118 25 -251 26 -178 0 -273 -19
-396 -79 -89 -43 -211 -166 -355 -355 l-26 -34 -59 48 c-32 27 -86 62 -120 79
-45 22 -68 41 -88 73 -50 78 -139 150 -259 209 -146 71 -241 95 -392 102 -102
5 -134 2 -205 -16 -141 -35 -207 -72 -394 -219 -128 -100 -283 -161 -635 -248
-460 -114 -619 -186 -784 -351 -151 -151 -247 -358 -247 -535 l0 -57 -72 39
c-75 40 -195 83 -283 102 -53 11 -383 26 -388 18 -1 -3 -42 -13 -91 -23 -49
-10 -116 -29 -148 -42 -32 -13 -58 -22 -58 -20 0 10 120 186 125 184 4 0 10 3
13 7 4 4 1 4 -5 0 -18 -10 -17 -5 21 71 43 87 92 242 111 350 19 109 19 316 0
425 -42 243 -178 455 -378 589 -50 33 -121 93 -160 135 -119 128 -240 201
-403 244 -90 23 -248 33 -344 20z m253 -341 c76 -15 153 -56 222 -120 75 -71
125 -159 156 -279 31 -119 24 -323 -15 -455 -133 -448 -559 -797 -1106 -905
-57 -12 -129 -20 -160 -19 l-55 3 -48 -155 c-27 -85 -51 -161 -54 -169 -3 -8
-7 -22 -9 -31 -2 -8 -25 -103 -53 -210 -27 -106 -59 -241 -70 -299 -12 -58
-24 -113 -26 -122 -5 -27 1 -22 26 20 77 128 222 334 302 428 152 178 279 276
422 326 129 45 224 33 297 -39 72 -71 108 -212 71 -283 -17 -32 -22 -36 -78
-42 -135 -17 -195 -31 -267 -62 -107 -47 -213 -124 -317 -231 -88 -91 -246
-293 -236 -303 2 -3 24 13 47 35 168 154 392 239 562 213 39 -6 74 -16 78 -23
4 -7 8 -9 8 -4 0 13 53 -19 82 -50 74 -78 97 -242 60 -423 -11 -52 -30 -142
-42 -200 -14 -71 -20 -130 -18 -183 3 -72 6 -81 31 -103 72 -61 207 -2 313
136 l38 50 1 217 c1 229 8 281 66 476 134 459 477 804 860 866 255 42 508 -36
644 -199 46 -54 98 -165 114 -238 19 -93 14 -246 -14 -359 -56 -234 -160 -421
-311 -562 -119 -111 -239 -176 -385 -206 -82 -17 -237 -20 -292 -4 -22 6 -41
9 -43 6 -2 -2 4 -32 15 -65 69 -222 253 -326 520 -293 249 30 468 218 683 585
23 38 32 46 57 46 61 0 90 -83 55 -153 -23 -44 -96 -151 -106 -155 -4 -2 -8
-8 -8 -13 0 -6 -32 -54 -71 -107 -185 -251 -416 -412 -657 -458 -85 -16 -285
-18 -387 -4 -298 43 -524 180 -642 389 -15 28 -31 51 -34 51 -4 0 -21 -19 -39
-42 -59 -76 -224 -232 -298 -281 -135 -91 -244 -127 -379 -127 -130 0 -221 40
-281 123 -87 122 -99 287 -39 528 43 170 44 192 16 220 -26 26 -77 20 -168
-22 -75 -35 -186 -142 -239 -231 -75 -127 -143 -323 -161 -462 -5 -40 -14 -83
-20 -95 -21 -39 -70 -61 -137 -61 -86 0 -153 23 -208 71 -55 49 -89 111 -112
205 -8 38 -17 74 -19 81 -2 7 -37 -22 -77 -64 -138 -142 -297 -244 -438 -279
-44 -11 -92 -15 -155 -12 -76 3 -98 8 -144 33 -130 71 -179 218 -167 495 3 85
13 191 21 235 9 44 16 89 16 99 0 18 20 121 84 430 35 169 31 201 -35 267 -27
27 -53 49 -57 49 -4 0 -28 -46 -52 -103 -159 -366 -368 -749 -548 -1007 -86
-123 -258 -299 -363 -370 -84 -57 -191 -105 -267 -120 -87 -17 -216 -9 -275
17 -86 39 -157 126 -197 246 l-17 48 -46 -59 c-92 -119 -232 -212 -369 -246
-74 -18 -219 -21 -300 -6 -30 6 -92 29 -139 52 -317 156 -434 559 -310 1066
74 302 191 533 350 691 167 166 360 251 572 251 179 0 350 -86 413 -210 23
-45 23 -45 34 -20 5 14 29 70 52 124 22 55 48 110 56 122 39 60 196 94 349 75
192 -23 324 -98 324 -183 0 -22 -44 -117 -60 -128 -11 -8 -105 -232 -148 -355
-147 -413 -213 -815 -159 -972 51 -146 187 -138 332 19 204 220 462 769 525
1119 11 57 10 65 -5 74 -85 50 -136 108 -157 178 -22 70 -15 306 10 400 45
164 133 287 217 303 130 24 257 -60 307 -204 34 -99 32 -295 -5 -438 -14 -56
-27 -107 -29 -114 -4 -17 59 -33 282 -71 262 -44 330 -79 382 -196 23 -53 34
-156 20 -203 -5 -19 -42 -136 -80 -260 -95 -302 -122 -409 -129 -506 -11 -150
17 -204 102 -204 71 0 153 52 229 144 l35 43 11 194 c15 268 18 309 41 509 19
168 81 552 99 615 11 38 29 120 35 162 16 104 125 488 200 703 139 399 331
723 573 967 168 169 334 278 517 339 150 50 263 59 398 33z m-6346 -169 c314
-76 637 -328 813 -637 59 -103 107 -216 133 -317 20 -78 24 -86 42 -81 11 4
34 10 50 15 17 4 237 79 490 165 1196 408 1588 513 2020 541 398 26 723 -162
830 -481 45 -135 40 -300 -14 -399 -33 -62 -67 -88 -116 -88 -47 0 -84 27
-108 78 -37 76 -117 140 -206 164 -109 29 -198 35 -416 29 -430 -13 -915 -78
-1750 -234 -137 -26 -295 -55 -350 -65 -55 -10 -163 -30 -240 -44 -77 -14
-155 -28 -172 -31 -24 -4 -33 -11 -33 -25 0 -10 -14 -71 -30 -136 -29 -110
-105 -290 -144 -339 -9 -11 -31 -42 -48 -69 -51 -78 -202 -230 -309 -311 -231
-174 -517 -299 -834 -367 -112 -23 -177 -31 -325 -36 l-185 -7 -7 -50 c-82
-530 -253 -926 -482 -1116 -69 -57 -214 -130 -296 -150 -80 -20 -299 -17 -380
4 -188 50 -311 157 -360 315 -37 120 -17 409 37 531 9 20 17 42 19 49 5 27 56
123 106 199 28 43 89 116 137 163 146 145 323 249 553 324 70 24 130 45 132
47 3 2 23 119 46 259 96 594 215 947 365 1078 63 56 112 75 203 80 46 3 81 7
80 11 -2 3 -20 39 -41 80 -52 100 -77 203 -77 315 0 163 44 272 154 381 100
99 217 152 386 175 88 12 231 3 327 -20z m10527 -510 c95 -24 206 -81 246
-127 34 -38 36 -50 16 -79 -43 -61 -128 -519 -158 -849 -12 -132 -16 -962 -5
-1025 2 -14 5 -50 6 -79 0 -34 5 -51 10 -45 5 5 41 88 79 184 319 799 728
1521 1064 1876 98 102 127 115 273 121 218 10 418 -69 439 -172 5 -24 -4 -51
-40 -125 -102 -210 -223 -551 -350 -990 -47 -159 -121 -436 -130 -480 -3 -14
-21 -99 -40 -190 -62 -288 -87 -483 -88 -680 -1 -210 12 -271 74 -332 33 -33
44 -38 84 -38 113 0 222 106 381 370 32 52 62 98 69 102 40 26 96 -20 96 -80
0 -90 -270 -475 -427 -608 -165 -140 -309 -204 -464 -204 -116 0 -172 21 -240
90 -124 127 -179 336 -179 677 0 321 66 789 179 1272 23 96 41 177 41 180 0
11 -42 -63 -108 -189 -35 -69 -70 -134 -77 -145 -25 -42 -231 -477 -297 -630
-38 -88 -76 -173 -83 -190 -8 -16 -41 -100 -75 -185 -79 -203 -96 -236 -136
-261 -59 -36 -95 -36 -179 4 -169 81 -180 101 -197 367 -27 434 -14 1262 23
1509 5 35 8 66 5 68 -7 7 -81 -237 -130 -427 -65 -254 -95 -403 -191 -939 -77
-428 -184 -726 -332 -921 -48 -64 -141 -157 -188 -190 -49 -34 -165 -93 -165
-84 0 4 -7 1 -15 -6 -8 -7 -15 -9 -15 -5 0 4 -6 3 -12 -2 -27 -22 -152 -36
-267 -30 -192 8 -313 58 -419 172 -96 102 -115 189 -56 248 33 33 70 41 120
25 32 -11 43 -22 64 -65 63 -130 161 -171 270 -112 200 107 347 514 485 1340
25 151 50 297 55 324 5 28 19 109 31 180 31 189 129 574 175 689 6 16 3 18
-27 11 -102 -22 -291 -109 -419 -193 -209 -138 -320 -299 -320 -463 0 -81 -13
-114 -52 -130 -62 -25 -220 31 -311 111 -60 53 -122 175 -131 256 -14 121 33
249 130 353 121 132 229 179 639 281 297 74 433 118 565 185 90 45 196 116
270 180 128 109 263 139 434 95z m2451 -1295 c88 -25 149 -59 188 -105 44 -52
50 -83 36 -189 -14 -101 -6 -304 17 -460 14 -100 51 -282 58 -288 2 -2 40 56
84 130 89 147 175 311 223 427 17 41 37 89 44 105 18 40 65 191 65 207 0 7 5
30 11 51 15 57 65 76 190 77 120 0 210 -25 257 -71 42 -41 42 -90 1 -213 -85
-256 -345 -706 -612 -1059 l-89 -119 35 -51 c50 -75 108 -131 162 -157 69 -33
168 -25 256 20 85 45 217 179 289 294 75 120 97 146 125 146 50 0 83 -87 54
-143 -29 -55 -182 -279 -236 -347 -79 -97 -212 -225 -292 -279 -133 -91 -254
-131 -391 -131 -138 1 -250 49 -377 164 l-53 48 -52 -45 c-153 -128 -321 -205
-455 -209 -71 -2 -117 22 -156 82 -80 120 -58 233 50 259 95 24 256 119 353
208 l51 48 -35 78 c-147 320 -276 915 -276 1267 0 140 10 182 53 214 31 23
107 51 157 59 58 8 211 -2 265 -18z"/>
<path d="M10190 11947 c-202 -85 -395 -312 -576 -680 -54 -110 -63 -133 -48
-135 25 -6 197 36 308 75 275 96 482 249 566 419 26 53 33 82 37 148 5 73 3
84 -19 115 -52 77 -166 102 -268 58z"/>
<path d="M11575 10251 c-109 -49 -230 -248 -319 -523 -47 -146 -92 -347 -83
-372 10 -25 72 -31 125 -11 126 49 282 281 370 555 68 212 70 329 5 359 -33
15 -51 14 -98 -8z"/>
<path d="M5635 10046 c-236 -119 -450 -692 -380 -1019 19 -93 49 -142 100
-167 52 -25 59 -25 120 4 105 49 232 226 310 431 98 260 113 574 34 702 -43
70 -108 87 -184 49z"/>
<path d="M3765 11826 c-22 -9 -55 -32 -74 -52 -32 -35 -33 -39 -29 -99 19
-230 256 -407 590 -440 l67 -6 -5 38 c-34 250 -152 447 -318 528 -85 42 -170
53 -231 31z"/>
<path d="M3492 11123 c-87 -191 -150 -400 -247 -818 -31 -133 -48 -226 -42
-231 3 -4 37 -1 74 5 198 33 448 137 600 250 153 113 258 233 334 386 39 77
84 203 76 211 -1 2 -43 8 -92 14 -237 29 -461 110 -646 233 l-26 17 -31 -67z"/>
<path d="M2410 9552 c-263 -116 -420 -251 -515 -447 -68 -138 -93 -302 -60
-383 46 -110 156 -145 265 -86 146 80 273 351 380 816 17 71 30 131 30 134 0
8 -16 3 -100 -34z"/>
</g>
</svg>
